RBDS05runT25_grf
version=1
nRows=34
nColumns=19
inDegrees=no
endheader
time	ground_force_r_vx	ground_force_r_vy	ground_force_r_vz	ground_force_r_px	ground_force_r_py	ground_force_r_pz	ground_force_r_mx	ground_force_r_my	ground_force_r_mz	ground_force_l_vx	ground_force_l_vy	ground_force_l_vz	ground_force_l_px	ground_force_l_py	ground_force_l_pz	ground_force_l_mx	ground_force_l_my	ground_force_l_mz
      7.49900000	      0.00000000	      0.00000000	      0.00000000	      0.00000000	      0.00000000	      0.00000000	      0.00000000	      0.00000000	      0.00000000	   -104.05826929	    966.95286294	     23.86647925	      2.26833386	      0.00000000	      0.96971001	     -0.00000000	      8.00326291	      0.00000000
      7.50000000	      0.00000000	      0.00000000	      0.00000000	      0.00000000	      0.00000000	      0.00000000	      0.00000000	      0.00000000	      0.00000000	   -106.87131089	    978.90229137	     24.41187175	      2.26763681	      0.00000000	      0.96966134	     -0.00000000	      8.11731108	      0.00000000
      7.50100000	      0.00000000	      0.00000000	      0.00000000	      0.00000000	      0.00000000	      0.00000000	      0.00000000	      0.00000000	      0.00000000	   -109.45168359	    990.26119956	     24.99665499	      2.26688724	      0.00000000	      0.96961820	     -0.00000000	      8.23438839	      0.00000000
      7.50200000	      0.00000000	      0.00000000	      0.00000000	      0.00000000	      0.00000000	      0.00000000	      0.00000000	      0.00000000	      0.00000000	   -112.03205628	   1001.62010774	     25.58143824	      2.26613768	      0.00000000	      0.96957507	     -0.00000000	      8.35146570	      0.00000000
      7.50300000	      0.00000000	      0.00000000	      0.00000000	      0.00000000	      0.00000000	      0.00000000	      0.00000000	      0.00000000	      0.00000000	   -114.61242898	   1012.97901593	     26.16622149	      2.26538812	      0.00000000	      0.96953193	     -0.00000000	      8.46854300	      0.00000000
      7.50400000	      0.00000000	      0.00000000	      0.00000000	      0.00000000	      0.00000000	      0.00000000	      0.00000000	      0.00000000	      0.00000000	   -116.98801052	   1023.94198071	     26.77820666	      2.26459392	      0.00000000	      0.96949042	     -0.00000000	      8.58742223	     -0.00000000
      7.50500000	      0.00000000	      0.00000000	      0.00000000	      0.00000000	      0.00000000	      0.00000000	      0.00000000	      0.00000000	      0.00000000	   -119.26119648	   1034.70697378	     27.40379280	      2.26377740	      0.00000000	      0.96944972	     -0.00000000	      8.70720241	     -0.00000000
      7.50600000	      0.00000000	      0.00000000	      0.00000000	      0.00000000	      0.00000000	      0.00000000	      0.00000000	      0.00000000	      0.00000000	   -121.53438244	   1045.47196686	     28.02937894	      2.26296088	      0.00000000	      0.96940903	     -0.00000000	      8.82698259	     -0.00000000
      7.50700000	      0.00000000	      0.00000000	      0.00000000	      0.00000000	      0.00000000	      0.00000000	      0.00000000	      0.00000000	      0.00000000	   -123.68396590	   1056.03500736	     28.66851507	      2.26211800	      0.00000000	      0.96936824	     -0.00000000	      8.94744386	     -0.00000000
      7.50800000	      0.00000000	      0.00000000	      0.00000000	      0.00000000	      0.00000000	      0.00000000	      0.00000000	      0.00000000	      0.00000000	   -125.58634436	   1066.19414272	     29.33475120	      2.26122238	      0.00000000	      0.96932728	     -0.00000000	      9.06926729	     -0.00000000
      7.50900000	      0.00000000	      0.00000000	      0.00000000	      0.00000000	      0.00000000	      0.00000000	      0.00000000	      0.00000000	      0.00000000	   -127.48872281	   1076.35327808	     30.00098732	      2.26032675	      0.00000000	      0.96928631	     -0.00000000	      9.19109073	     -0.00000000
      7.51000000	      0.00000000	      0.00000000	      0.00000000	      0.00000000	      0.00000000	      0.00000000	      0.00000000	      0.00000000	      0.00000000	   -129.39110127	   1086.51241344	     30.66722345	      2.25943113	      0.00000000	      0.96924535	     -0.00000000	      9.31291416	     -0.00000000
      7.51100000	      0.00000000	      0.00000000	      0.00000000	      0.00000000	      0.00000000	      0.00000000	      0.00000000	      0.00000000	      0.00000000	   -130.87174584	   1096.04463543	     31.37246904	      2.25844692	      0.00000000	      0.96920185	      0.00000000	      9.43582606	     -0.00000000
      7.51200000	      0.00000000	      0.00000000	      0.00000000	      0.00000000	      0.00000000	      0.00000000	      0.00000000	      0.00000000	      0.00000000	   -132.35239040	   1105.57685742	     32.07771463	      2.25746272	      0.00000000	      0.96915836	      0.00000000	      9.55873795	     -0.00000000
      7.51300000	      0.00000000	      0.00000000	      0.00000000	      0.00000000	      0.00000000	      0.00000000	      0.00000000	      0.00000000	      0.00000000	   -133.83303496	   1115.10907941	     32.78296021	      2.25647851	      0.00000000	      0.96911486	      0.00000000	      9.68164985	     -0.00000000
      7.51400000	      0.00000000	      0.00000000	      0.00000000	      0.00000000	      0.00000000	      0.00000000	      0.00000000	      0.00000000	      0.00000000	   -135.00776513	   1124.20335608	     33.51221955	      2.25543089	      0.00000000	      0.96906848	      0.00000000	      9.80449305	     -0.00000000
      7.51500000	      0.00000000	      0.00000000	      0.00000000	      0.00000000	      0.00000000	      0.00000000	      0.00000000	      0.00000000	      0.00000000	   -136.02953809	   1133.07866011	     34.25348575	      2.25435156	      0.00000000	      0.96902066	      0.00000000	      9.92730190	     -0.00000000
      7.51600000	      0.00000000	      0.00000000	      0.00000000	      0.00000000	      0.00000000	      0.00000000	      0.00000000	      0.00000000	      0.00000000	   -137.05131106	   1141.95396413	     34.99475196	      2.25327222	      0.00000000	      0.96897284	      0.00000000	     10.05011076	     -0.00000000
      7.51700000	      0.00000000	      0.00000000	      0.00000000	      0.00000000	      0.00000000	      0.00000000	      0.00000000	      0.00000000	      0.00000000	   -137.91247284	   1150.59759934	     35.74663535	      2.25216001	      0.00000000	      0.96892314	      0.00000000	     10.17243342	     -0.00000000
      7.51800000	      0.00000000	      0.00000000	      0.00000000	      0.00000000	      0.00000000	      0.00000000	      0.00000000	      0.00000000	      0.00000000	   -138.45241226	   1158.77789692	     36.51975310	      2.25098205	      0.00000000	      0.96886968	      0.00000000	     10.29378367	     -0.00000000
      7.51900000	      0.00000000	      0.00000000	      0.00000000	      0.00000000	      0.00000000	      0.00000000	      0.00000000	      0.00000000	      0.00000000	   -138.99235167	   1166.95819451	     37.29287085	      2.24980409	      0.00000000	      0.96881623	      0.00000000	     10.41513393	     -0.00000000
      7.52000000	      0.00000000	      0.00000000	      0.00000000	      0.00000000	      0.00000000	      0.00000000	      0.00000000	      0.00000000	      0.00000000	   -139.53229109	   1175.13849210	     38.06598860	      2.24862613	      0.00000000	      0.96876277	      0.00000000	     10.53648419	     -0.00000000
      7.52100000	      0.00000000	      0.00000000	      0.00000000	      0.00000000	      0.00000000	      0.00000000	      0.00000000	      0.00000000	      0.00000000	   -139.58132696	   1182.57910068	     38.86577648	      2.24734906	      0.00000000	      0.96870285	      0.00000000	     10.65493583	     -0.00000000
      7.52200000	      0.00000000	      0.00000000	      0.00000000	      0.00000000	      0.00000000	      0.00000000	      0.00000000	      0.00000000	      0.00000000	   -139.63036283	   1190.01970926	     39.66556436	      2.24607199	      0.00000000	      0.96864292	      0.00000000	     10.77338748	     -0.00000000
      7.52300000	      0.00000000	      0.00000000	      0.00000000	      0.00000000	      0.00000000	      0.00000000	      0.00000000	      0.00000000	      0.00000000	   -139.67939870	   1197.46031784	     40.46535224	      2.24479491	      0.00000000	      0.96858299	      0.00000000	     10.89183913	     -0.00000000
      7.52400000	      0.00000000	      0.00000000	      0.00000000	      0.00000000	      0.00000000	      0.00000000	      0.00000000	      0.00000000	      0.00000000	   -139.40379176	   1204.37494775	     41.27888788	      2.24345336	      0.00000000	      0.96851849	      0.00000000	     11.00739495	     -0.00000000
      7.52500000	      0.00000000	      0.00000000	      0.00000000	      0.00000000	      0.00000000	      0.00000000	      0.00000000	      0.00000000	      0.00000000	   -138.96586342	   1211.02658832	     42.09929741	      2.24207955	      0.00000000	      0.96845170	      0.00000000	     11.12150287	     -0.00000000
      7.52600000	      0.00000000	      0.00000000	      0.00000000	      0.00000000	      0.00000000	      0.00000000	      0.00000000	      0.00000000	      0.00000000	   -138.52793508	   1217.67822888	     42.91970693	      2.24070575	      0.00000000	      0.96838491	      0.00000000	     11.23561078	     -0.00000000
      7.52700000	      0.00000000	      0.00000000	      0.00000000	      0.00000000	      0.00000000	      0.00000000	      0.00000000	      0.00000000	      0.00000000	   -137.93287496	   1224.04970792	     43.74472163	      2.23930135	      0.00000000	      0.96831584	      0.00000000	     11.34781176	     -0.00000000
      7.52800000	      0.00000000	      0.00000000	      0.00000000	      0.00000000	      0.00000000	      0.00000000	      0.00000000	      0.00000000	      0.00000000	   -137.02355131	   1229.86086391	     44.57894666	      2.23783577	      0.00000000	      0.96824221	      0.00000000	     11.45619887	     -0.00000000
      7.52900000	      0.00000000	      0.00000000	      0.00000000	      0.00000000	      0.00000000	      0.00000000	      0.00000000	      0.00000000	      0.00000000	   -136.11422765	   1235.67201990	     45.41317170	      2.23637019	      0.00000000	      0.96816858	      0.00000000	     11.56458598	     -0.00000000
      7.53000000	      0.00000000	      0.00000000	      0.00000000	      0.00000000	      0.00000000	      0.00000000	      0.00000000	      0.00000000	      0.00000000	   -135.20490399	   1241.48317588	     46.24739674	      2.23490461	      0.00000000	      0.96809494	      0.00000000	     11.67297308	     -0.00000000
      7.53100000	      0.00000000	      0.00000000	      0.00000000	      0.00000000	      0.00000000	      0.00000000	      0.00000000	      0.00000000	      0.00000000	   -133.84962980	   1246.40264931	     47.08794379	      2.23335441	      0.00000000	      0.96801485	      0.00000000	     11.77439277	     -0.00000000
      7.53200000	      0.00000000	      0.00000000	      0.00000000	      0.00000000	      0.00000000	      0.00000000	      0.00000000	      0.00000000	      0.00000000	   -132.49435560	   1251.32212273	     47.92849084	      2.23180420	      0.00000000	      0.96793476	      0.00000000	     11.87581246	     -0.00000000
